<svg  viewBox="0 0 30 12" fill="none" xmlns="http://www.w3.org/2000/svg">
<path d="M6.36222 1.27305H7.94318V6.97475C7.94318 7.59975 7.79545 8.14948 7.5 8.62391C7.20739 9.09835 6.79545 9.46908 6.2642 9.73613C5.73295 10.0003 5.11221 10.1324 4.40199 10.1324C3.68892 10.1324 3.06676 10.0003 2.53551 9.73613C2.00426 9.46908 1.59233 9.09835 1.29971 8.62391C1.0071 8.14948 0.860794 7.59975 0.860794 6.97475V1.27305H2.44176V6.84265C2.44176 7.20628 2.52131 7.53015 2.6804 7.81424C2.84233 8.09833 3.0696 8.32134 3.36221 8.48328C3.65483 8.64237 4.00142 8.72193 4.40199 8.72193C4.80256 8.72193 5.14915 8.64237 5.44176 8.48328C5.73721 8.32134 5.96449 8.09833 6.12358 7.81424C6.28267 7.53015 6.36222 7.20628 6.36222 6.84265V1.27305Z" fill="#2ECC40"/>
<path d="M10.595 1.27273V10H9.01399V1.27273L9.77152 0.5L10.595 1.27273Z" fill="#2ECC40"/>
<path d="M12.4297 10C12.3646 10 12.332 9.96419 12.332 9.89258V7.30664C12.332 7.23503 12.3646 7.19922 12.4297 7.19922H14.1387C14.2103 7.19922 14.2461 7.22852 14.2461 7.28711V7.43164C14.2461 7.49023 14.2103 7.51953 14.1387 7.51953H12.707V8.38672H14.0215C14.0931 8.38672 14.1289 8.41602 14.1289 8.47461V8.61914C14.1289 8.67773 14.0931 8.70703 14.0215 8.70703H12.707V9.67969H14.1973C14.2689 9.67969 14.3047 9.70898 14.3047 9.76758V9.91211C14.3047 9.9707 14.2689 10 14.1973 10H12.4297ZM14.6465 8.97461C14.6465 8.69466 14.7142 8.44857 14.8496 8.23633C14.985 8.02279 15.1829 7.91602 15.4434 7.91602C15.5931 7.91602 15.7129 7.94076 15.8027 7.99023C15.8926 8.03971 15.9733 8.10742 16.0449 8.19336H16.0488C16.0462 8.1543 16.0449 8.11458 16.0449 8.07422V7.20508C16.0449 7.14648 16.0742 7.11719 16.1328 7.11719H16.3008C16.3594 7.11719 16.3887 7.14648 16.3887 7.20508V9.91211C16.3887 9.9707 16.3594 10 16.3008 10H16.1367C16.0898 10 16.0645 9.9707 16.0605 9.91211L16.0488 9.75586H16.0449C15.9733 9.8418 15.8926 9.90951 15.8027 9.95898C15.7129 10.0085 15.5931 10.0332 15.4434 10.0332C15.1829 10.0332 14.985 9.92708 14.8496 9.71484C14.7142 9.5013 14.6465 9.25456 14.6465 8.97461ZM15.0098 8.97461C15.0098 9.21419 15.0508 9.4082 15.1328 9.55664C15.2161 9.70508 15.3568 9.7793 15.5547 9.7793C15.6953 9.7793 15.8118 9.73177 15.9043 9.63672C15.998 9.54036 16.0449 9.39453 16.0449 9.19922V8.75C16.0449 8.55469 15.998 8.40951 15.9043 8.31445C15.8118 8.2181 15.6953 8.16992 15.5547 8.16992C15.3568 8.16992 15.2161 8.24414 15.1328 8.39258C15.0508 8.54102 15.0098 8.73503 15.0098 8.97461ZM16.9414 9.28516V8.03711C16.9414 7.97852 16.9707 7.94922 17.0293 7.94922H17.1973C17.2559 7.94922 17.2852 7.97852 17.2852 8.03711V9.19141C17.2852 9.44661 17.3275 9.60872 17.4121 9.67773C17.4967 9.74544 17.6016 9.7793 17.7266 9.7793C17.8906 9.7793 18.0163 9.72917 18.1035 9.62891C18.1908 9.52734 18.2344 9.35417 18.2344 9.10938V8.03711C18.2344 7.97852 18.2637 7.94922 18.3223 7.94922H18.4902C18.5488 7.94922 18.5781 7.97852 18.5781 8.03711V9.91211C18.5781 9.9707 18.5488 10 18.4902 10H18.3262C18.2676 10 18.2383 9.9707 18.2383 9.91211V9.75586H18.2305C18.1458 9.84961 18.0547 9.91927 17.957 9.96484C17.8594 10.0104 17.7402 10.0332 17.5996 10.0332C17.3717 10.0332 17.2051 9.9668 17.0996 9.83398C16.9941 9.69987 16.9414 9.51693 16.9414 9.28516ZM19.0215 8.97461C19.0215 8.66862 19.097 8.41602 19.248 8.2168C19.4004 8.01628 19.6328 7.91602 19.9453 7.91602C20.1562 7.91602 20.3171 7.95378 20.4277 8.0293C20.5397 8.10352 20.6204 8.17969 20.6699 8.25781C20.6973 8.30078 20.6914 8.33529 20.6523 8.36133L20.5293 8.44141C20.4902 8.46875 20.4512 8.45117 20.4121 8.38867C20.3743 8.32878 20.321 8.27734 20.252 8.23438C20.1842 8.19141 20.082 8.16992 19.9453 8.16992C19.7669 8.16992 19.6289 8.23568 19.5312 8.36719C19.4336 8.4987 19.3848 8.70117 19.3848 8.97461C19.3848 9.24805 19.4336 9.45052 19.5312 9.58203C19.6289 9.71354 19.7669 9.7793 19.9453 9.7793C20.0898 9.7793 20.2005 9.75195 20.2773 9.69727C20.3542 9.64128 20.4102 9.58073 20.4453 9.51562C20.4792 9.45443 20.5176 9.43685 20.5605 9.46289L20.6914 9.54102C20.7305 9.56445 20.7363 9.59961 20.709 9.64648C20.6764 9.70247 20.6022 9.78125 20.4863 9.88281C20.3717 9.98307 20.1914 10.0332 19.9453 10.0332C19.6328 10.0332 19.4004 9.93359 19.248 9.73438C19.097 9.53385 19.0215 9.2806 19.0215 8.97461ZM21.0254 9.45312C21.0254 9.22135 21.1335 9.05143 21.3496 8.94336C21.5671 8.83529 21.8913 8.77214 22.3223 8.75391V8.62109C22.3223 8.4987 22.2943 8.39323 22.2383 8.30469C22.1836 8.21484 22.0742 8.16992 21.9102 8.16992C21.806 8.16992 21.7227 8.18034 21.6602 8.20117C21.5977 8.2207 21.5404 8.2474 21.4883 8.28125C21.4375 8.3138 21.3887 8.35612 21.3418 8.4082C21.3066 8.44727 21.2734 8.44922 21.2422 8.41406L21.1406 8.29688C21.112 8.26432 21.1217 8.22526 21.1699 8.17969C21.2389 8.11458 21.306 8.06576 21.3711 8.0332C21.4362 8.00065 21.5169 7.97331 21.6133 7.95117C21.7109 7.92773 21.8099 7.91602 21.9102 7.91602C22.1823 7.91602 22.3763 7.98633 22.4922 8.12695C22.6081 8.26628 22.666 8.45768 22.666 8.70117V9.91211C22.666 9.9707 22.6367 10 22.5781 10H22.4023C22.3516 10 22.3262 9.9707 22.3262 9.91211V9.81641H22.3223C22.2194 9.89714 22.1185 9.95378 22.0195 9.98633C21.9219 10.0176 21.8125 10.0332 21.6914 10.0332C21.4779 10.0332 21.3132 9.98242 21.1973 9.88086C21.0827 9.77799 21.0254 9.63542 21.0254 9.45312ZM21.3809 9.46094C21.3809 9.54167 21.3978 9.60677 21.4316 9.65625C21.4655 9.70443 21.5124 9.73568 21.5723 9.75C21.6322 9.76302 21.6947 9.76953 21.7598 9.76953C21.86 9.76953 21.9551 9.75977 22.0449 9.74023C22.1348 9.7207 22.2272 9.66927 22.3223 9.58594V9.00977C22.0592 9.0293 21.8717 9.05339 21.7598 9.08203C21.6478 9.10938 21.5566 9.15755 21.4863 9.22656C21.416 9.29427 21.3809 9.3724 21.3809 9.46094ZM23.123 8.20703C23.0645 8.20703 23.0352 8.18424 23.0352 8.13867V8.01758C23.0352 7.97201 23.0645 7.94922 23.123 7.94922H23.3535V7.77344C23.3535 7.7474 23.36 7.72266 23.373 7.69922L23.5098 7.45117C23.5345 7.4056 23.5547 7.38281 23.5703 7.38281H23.6387C23.6777 7.38281 23.6973 7.4056 23.6973 7.45117V7.94922H24.1133C24.1719 7.94922 24.2012 7.97201 24.2012 8.01758V8.13867C24.2012 8.18424 24.1719 8.20703 24.1133 8.20703H23.6973V9.45117C23.6973 9.58789 23.7174 9.67708 23.7578 9.71875C23.7995 9.75911 23.849 9.7793 23.9062 9.7793C23.9505 9.7793 24.0033 9.76628 24.0645 9.74023C24.127 9.71419 24.1699 9.69206 24.1934 9.67383C24.2168 9.6556 24.235 9.66146 24.248 9.69141L24.3125 9.8418C24.3229 9.86784 24.3151 9.88867 24.2891 9.9043C24.2383 9.93424 24.1641 9.96354 24.0664 9.99219C23.9688 10.0195 23.8711 10.0332 23.7734 10.0332C23.638 10.0332 23.5339 9.98438 23.4609 9.88672C23.3893 9.78906 23.3535 9.65104 23.3535 9.47266V8.20703H23.123ZM24.791 10C24.7324 10 24.7031 9.9707 24.7031 9.91211V8.03711C24.7031 7.97852 24.7324 7.94922 24.791 7.94922H24.959C25.0176 7.94922 25.0469 7.97852 25.0469 8.03711V9.91211C25.0469 9.9707 25.0176 10 24.959 10H24.791ZM24.791 7.57812C24.7324 7.57812 24.7031 7.54883 24.7031 7.49023V7.32227C24.7031 7.26367 24.7324 7.23438 24.791 7.23438H24.959C25.0176 7.23438 25.0469 7.26367 25.0469 7.32227V7.49023C25.0469 7.54883 25.0176 7.57812 24.959 7.57812H24.791ZM25.4902 8.97461C25.4902 8.66862 25.571 8.41602 25.7324 8.2168C25.8952 8.01628 26.1328 7.91602 26.4453 7.91602C26.7578 7.91602 26.9948 8.01628 27.1562 8.2168C27.319 8.41602 27.4004 8.66862 27.4004 8.97461C27.4004 9.2806 27.319 9.53385 27.1562 9.73438C26.9948 9.93359 26.7578 10.0332 26.4453 10.0332C26.1328 10.0332 25.8952 9.93359 25.7324 9.73438C25.571 9.53385 25.4902 9.2806 25.4902 8.97461ZM25.8535 8.97461C25.8535 9.24805 25.9076 9.45052 26.0156 9.58203C26.1237 9.71354 26.2669 9.7793 26.4453 9.7793C26.6237 9.7793 26.7669 9.71354 26.875 9.58203C26.9831 9.45052 27.0371 9.24805 27.0371 8.97461C27.0371 8.70117 26.9831 8.4987 26.875 8.36719C26.7669 8.23568 26.6237 8.16992 26.4453 8.16992C26.2669 8.16992 26.1237 8.23568 26.0156 8.36719C25.9076 8.4987 25.8535 8.70117 25.8535 8.97461ZM27.9316 10C27.873 10 27.8438 9.9707 27.8438 9.91211V8.03711C27.8438 7.97852 27.873 7.94922 27.9316 7.94922H28.0957C28.1543 7.94922 28.1836 7.97852 28.1836 8.03711V8.19336H28.1914C28.276 8.09961 28.3672 8.02995 28.4648 7.98438C28.5625 7.9388 28.6842 7.91602 28.8301 7.91602C29.0671 7.91602 29.237 7.98307 29.3398 8.11719C29.444 8.25 29.4961 8.43229 29.4961 8.66406V9.91211C29.4961 9.9707 29.4668 10 29.4082 10H29.2402C29.1816 10 29.1523 9.9707 29.1523 9.91211V8.75781C29.1523 8.5026 29.11 8.34115 29.0254 8.27344C28.9408 8.20443 28.8333 8.16992 28.7031 8.16992C28.5339 8.16992 28.4056 8.2207 28.3184 8.32227C28.2311 8.42253 28.1875 8.59505 28.1875 8.83984V9.91211C28.1875 9.9707 28.1582 10 28.0996 10H27.9316Z" fill="#1D8A29"/>
</svg>
